<?xml version="1.0"?>
<svg xmlns="http://www.w3.org/2000/svg" version="1" viewBox="0 0 24 24" enable-background="new 0 0 24 24">
    <path d="M 12 2 C 6.4889972 2 2 6.4889972 2 12 C 2 17.511003 6.4889972 22 12 22 C 17.511003 22 22 17.511003 22 12 C 22 6.4889972 17.511003 2 12 2 z M 10 4.25 L 10 7 L 14 7 L 14 4.25 C 17.455277 5.1354596 20 8.2620841 20 12 C 20 13.465209 19.589219 14.821022 18.90625 16 L 15 16 L 15 19.4375 C 14.075981 19.808796 13.059487 20 12 20 C 10.940513 20 9.9240194 19.808796 9 19.4375 L 9 16 L 5.09375 16 C 4.4107811 14.821022 4 13.465209 4 12 C 4 8.2620841 6.5447232 5.1354596 10 4.25 z M 9 9 C 8.5 9 8 9.5 8 10 C 8 10.5 8.5 11 9 11 C 9.5 11 10 10.5 10 10 C 10 9.5 9.5 9 9 9 z M 15 9 C 14.5 9 14 9.5 14 10 C 14 10.5 14.5 11 15 11 C 15.5 11 16 10.5 16 10 C 16 9.5 15.5 9 15 9 z M 8 12 C 7.5 12 7 12.5 7 13 C 7 13.5 7.5 14 8 14 C 8.5 14 9 13.5 9 13 C 9 12.5 8.5 12 8 12 z M 16 12 C 15.5 12 15 12.5 15 13 C 15 13.5 15.5 14 16 14 C 16.5 14 17 13.5 17 13 C 17 12.5 16.5 12 16 12 z"/>
</svg>
